<svg xmlns="http://www.w3.org/2000/svg" version="1.1" xmlns:xlink="http://www.w3.org/1999/xlink" xmlns:svgjs="http://svgjs.dev/svgjs" viewBox="0 0 800 800"><defs><linearGradient x1="50%" y1="0%" x2="50%" y2="100%" id="ffflurry-grad" gradientTransform="rotate(270)"><stop stop-color="hsl(238, 82%, 13%)" stop-opacity="1" offset="0%"></stop><stop stop-color="hsl(37, 99%, 67%)" stop-opacity="1" offset="45%"></stop><stop stop-color="hsl(316, 73%, 52%)" stop-opacity="1" offset="100%"></stop></linearGradient></defs><rect width="100%" height="100%" fill="hsl(238, 82%, 13%)"></rect><g fill="url(#ffflurry-grad)"><rect width="107" height="3" x="294.5" y="310.5" rx="1.5" transform="rotate(45, 348, 312)" opacity="0.28"></rect><rect width="524" height="3" x="495" y="291.5" rx="1.5" transform="rotate(45, 757, 293)" opacity="0.33"></rect><rect width="394" height="3" x="554" y="191.5" rx="1.5" transform="rotate(45, 751, 193)" opacity="0.64"></rect><rect width="172" height="3" x="586" y="579.5" rx="1.5" transform="rotate(45, 672, 581)" opacity="0.35"></rect><rect width="331" height="3" x="449.5" y="106.5" rx="1.5" transform="rotate(45, 615, 108)" opacity="0.40"></rect><rect width="509" height="3" x="-182.5" y="614.5" rx="1.5" transform="rotate(45, 72, 616)" opacity="0.73"></rect><rect width="308" height="3" x="246" y="753.5" rx="1.5" transform="rotate(45, 400, 755)" opacity="0.51"></rect><rect width="288" height="3" x="432" y="350.5" rx="1.5" transform="rotate(45, 576, 352)" opacity="0.59"></rect><rect width="195" height="3" x="387.5" y="150.5" rx="1.5" transform="rotate(45, 485, 152)" opacity="0.30"></rect><rect width="68" height="3" x="547" y="715.5" rx="1.5" transform="rotate(45, 581, 717)" opacity="0.84"></rect><rect width="29" height="3" x="716.5" y="79.5" rx="1.5" transform="rotate(45, 731, 81)" opacity="0.77"></rect><rect width="460" height="3" x="321" y="47.5" rx="1.5" transform="rotate(45, 551, 49)" opacity="0.86"></rect><rect width="62" height="3" x="717" y="537.5" rx="1.5" transform="rotate(45, 748, 539)" opacity="0.53"></rect><rect width="78" height="3" x="374" y="169.5" rx="1.5" transform="rotate(45, 413, 171)" opacity="0.81"></rect><rect width="406" height="3" x="229" y="313.5" rx="1.5" transform="rotate(45, 432, 315)" opacity="0.88"></rect><rect width="159" height="3" x="672.5" y="651.5" rx="1.5" transform="rotate(45, 752, 653)" opacity="0.65"></rect><rect width="211" height="3" x="-77.5" y="268.5" rx="1.5" transform="rotate(45, 28, 270)" opacity="0.42"></rect><rect width="815" height="3" x="-312.5" y="737.5" rx="1.5" transform="rotate(45, 95, 739)" opacity="0.89"></rect><rect width="325" height="3" x="18.5" y="171.5" rx="1.5" transform="rotate(45, 181, 173)" opacity="0.79"></rect><rect width="378" height="3" x="-140" y="151.5" rx="1.5" transform="rotate(45, 49, 153)" opacity="0.45"></rect><rect width="313" height="3" x="132.5" y="37.5" rx="1.5" transform="rotate(45, 289, 39)" opacity="0.57"></rect><rect width="157" height="3" x="610.5" y="102.5" rx="1.5" transform="rotate(45, 689, 104)" opacity="0.16"></rect><rect width="538" height="3" x="-52" y="611.5" rx="1.5" transform="rotate(45, 217, 613)" opacity="0.14"></rect><rect width="93" height="3" x="725.5" y="125.5" rx="1.5" transform="rotate(45, 772, 127)" opacity="0.83"></rect><rect width="411" height="3" x="-165.5" y="339.5" rx="1.5" transform="rotate(45, 40, 341)" opacity="0.78"></rect><rect width="341" height="3" x="194.5" y="231.5" rx="1.5" transform="rotate(45, 365, 233)" opacity="0.79"></rect><rect width="57" height="3" x="453.5" y="33.5" rx="1.5" transform="rotate(45, 482, 35)" opacity="0.42"></rect><rect width="327" height="3" x="109.5" y="236.5" rx="1.5" transform="rotate(45, 273, 238)" opacity="0.36"></rect><rect width="170" height="3" x="244" y="144.5" rx="1.5" transform="rotate(45, 329, 146)" opacity="0.57"></rect><rect width="179" height="3" x="-38.5" y="214.5" rx="1.5" transform="rotate(45, 51, 216)" opacity="0.08"></rect><rect width="83" height="3" x="636.5" y="719.5" rx="1.5" transform="rotate(45, 678, 721)" opacity="0.84"></rect><rect width="215" height="3" x="92.5" y="289.5" rx="1.5" transform="rotate(45, 200, 291)" opacity="0.27"></rect><rect width="396" height="3" x="146" y="484.5" rx="1.5" transform="rotate(45, 344, 486)" opacity="0.44"></rect><rect width="244" height="3" x="559" y="32.5" rx="1.5" transform="rotate(45, 681, 34)" opacity="0.16"></rect><rect width="431" height="3" x="367.5" y="478.5" rx="1.5" transform="rotate(45, 583, 480)" opacity="0.13"></rect><rect width="269" height="3" x="297.5" y="69.5" rx="1.5" transform="rotate(45, 432, 71)" opacity="0.18"></rect><rect width="274" height="3" x="-100" y="425.5" rx="1.5" transform="rotate(45, 37, 427)" opacity="0.79"></rect><rect width="384" height="3" x="174" y="400.5" rx="1.5" transform="rotate(45, 366, 402)" opacity="0.42"></rect><rect width="512" height="3" x="220" y="235.5" rx="1.5" transform="rotate(45, 476, 237)" opacity="0.90"></rect><rect width="55" height="3" x="591.5" y="772.5" rx="1.5" transform="rotate(45, 619, 774)" opacity="0.20"></rect><rect width="30" height="3" x="739" y="21.5" rx="1.5" transform="rotate(45, 754, 23)" opacity="0.13"></rect><rect width="262" height="3" x="232" y="16.5" rx="1.5" transform="rotate(45, 363, 18)" opacity="0.10"></rect><rect width="46" height="3" x="104" y="222.5" rx="1.5" transform="rotate(45, 127, 224)" opacity="0.25"></rect><rect width="486" height="3" x="238" y="359.5" rx="1.5" transform="rotate(45, 481, 361)" opacity="0.28"></rect><rect width="323" height="3" x="462.5" y="656.5" rx="1.5" transform="rotate(45, 624, 658)" opacity="0.21"></rect><rect width="63" height="3" x="97.5" y="321.5" rx="1.5" transform="rotate(45, 129, 323)" opacity="0.33"></rect><rect width="340" height="3" x="201" y="72.5" rx="1.5" transform="rotate(45, 371, 74)" opacity="0.98"></rect><rect width="116" height="3" x="539" y="571.5" rx="1.5" transform="rotate(45, 597, 573)" opacity="0.33"></rect><rect width="189" height="3" x="-13.5" y="504.5" rx="1.5" transform="rotate(45, 81, 506)" opacity="0.29"></rect><rect width="282" height="3" x="377" y="748.5" rx="1.5" transform="rotate(45, 518, 750)" opacity="0.72"></rect><rect width="97" height="3" x="219.5" y="347.5" rx="1.5" transform="rotate(45, 268, 349)" opacity="0.30"></rect><rect width="214" height="3" x="403" y="617.5" rx="1.5" transform="rotate(45, 510, 619)" opacity="0.94"></rect><rect width="239" height="3" x="532.5" y="251.5" rx="1.5" transform="rotate(45, 652, 253)" opacity="0.70"></rect><rect width="307" height="3" x="604.5" y="425.5" rx="1.5" transform="rotate(45, 758, 427)" opacity="0.15"></rect><rect width="431" height="3" x="252.5" y="681.5" rx="1.5" transform="rotate(45, 468, 683)" opacity="0.55"></rect><rect width="377" height="3" x="356.5" y="133.5" rx="1.5" transform="rotate(45, 545, 135)" opacity="0.93"></rect><rect width="344" height="3" x="324" y="437.5" rx="1.5" transform="rotate(45, 496, 439)" opacity="0.67"></rect><rect width="115" height="3" x="203.5" y="733.5" rx="1.5" transform="rotate(45, 261, 735)" opacity="0.81"></rect><rect width="242" height="3" x="242" y="632.5" rx="1.5" transform="rotate(45, 363, 634)" opacity="0.37"></rect><rect width="206" height="3" x="91" y="59.5" rx="1.5" transform="rotate(45, 194, 61)" opacity="0.86"></rect><rect width="387" height="3" x="487.5" y="346.5" rx="1.5" transform="rotate(45, 681, 348)" opacity="0.80"></rect><rect width="57" height="3" x="630.5" y="446.5" rx="1.5" transform="rotate(45, 659, 448)" opacity="0.48"></rect><rect width="26" height="3" x="75" y="280.5" rx="1.5" transform="rotate(45, 88, 282)" opacity="0.13"></rect><rect width="185" height="3" x="89.5" y="477.5" rx="1.5" transform="rotate(45, 182, 479)" opacity="0.59"></rect><rect width="97" height="3" x="470.5" y="535.5" rx="1.5" transform="rotate(45, 519, 537)" opacity="0.79"></rect><rect width="90" height="3" x="731" y="70.5" rx="1.5" transform="rotate(45, 776, 72)" opacity="0.75"></rect><rect width="53" height="3" x="208.5" y="409.5" rx="1.5" transform="rotate(45, 235, 411)" opacity="0.74"></rect><rect width="436" height="3" x="400" y="27.5" rx="1.5" transform="rotate(45, 618, 29)" opacity="0.12"></rect><rect width="261" height="3" x="526.5" y="171.5" rx="1.5" transform="rotate(45, 657, 173)" opacity="0.90"></rect><rect width="528" height="3" x="-138" y="37.5" rx="1.5" transform="rotate(45, 126, 39)" opacity="0.74"></rect><rect width="53" height="3" x="242.5" y="523.5" rx="1.5" transform="rotate(45, 269, 525)" opacity="0.81"></rect><rect width="265" height="3" x="0.5" y="392.5" rx="1.5" transform="rotate(45, 133, 394)" opacity="0.92"></rect><rect width="469" height="3" x="514.5" y="756.5" rx="1.5" transform="rotate(45, 749, 758)" opacity="0.47"></rect><rect width="705" height="3" x="75.5" y="527.5" rx="1.5" transform="rotate(45, 428, 529)" opacity="0.86"></rect><rect width="581" height="3" x="-237.5" y="64.5" rx="1.5" transform="rotate(45, 53, 66)" opacity="0.68"></rect><rect width="380" height="3" x="370" y="244.5" rx="1.5" transform="rotate(45, 560, 246)" opacity="0.74"></rect><rect width="117" height="3" x="196.5" y="111.5" rx="1.5" transform="rotate(45, 255, 113)" opacity="0.53"></rect></g></svg>